<?xml version="1.0" encoding="UTF-8" standalone="no"?>
<svg
   xmlns:dc="http://purl.org/dc/elements/1.1/"
   xmlns:cc="http://creativecommons.org/ns#"
   xmlns:rdf="http://www.w3.org/1999/02/22-rdf-syntax-ns#"
   xmlns:svg="http://www.w3.org/2000/svg"
   xmlns="http://www.w3.org/2000/svg"
   xmlns:sodipodi="http://sodipodi.sourceforge.net/DTD/sodipodi-0.dtd"
   xmlns:inkscape="http://www.inkscape.org/namespaces/inkscape"
   version="1.1"
   width="11.525523cm"
   height="7.9179363cm"
   viewBox="0 0 45376.075 31172.98"
   id="svg986"
   sodipodi:docname="filter.svg"
   inkscape:version="0.92.5 (2060ec1f9f, 2020-04-08)">
  <metadata
     id="metadata992">
    <rdf:RDF>
      <cc:Work
         rdf:about="">
        <dc:format>image/svg+xml</dc:format>
        <dc:type
           rdf:resource="http://purl.org/dc/dcmitype/StillImage" />
        <dc:title>SVG Picture created as filtr.svg date 2020/11/08 13:31:14 </dc:title>
      </cc:Work>
    </rdf:RDF>
  </metadata>
  <defs
     id="defs990" />
  <sodipodi:namedview
     pagecolor="#ffffff"
     bordercolor="#666666"
     borderopacity="1"
     objecttolerance="10"
     gridtolerance="10"
     guidetolerance="10"
     inkscape:pageopacity="0"
     inkscape:pageshadow="2"
     inkscape:window-width="1920"
     inkscape:window-height="1176"
     id="namedview988"
     showgrid="false"
     fit-margin-top="0"
     fit-margin-left="0"
     fit-margin-right="0"
     fit-margin-bottom="0"
     inkscape:zoom="1.6819586"
     inkscape:cx="172.03751"
     inkscape:cy="102.0637"
     inkscape:window-x="0"
     inkscape:window-y="0"
     inkscape:window-maximized="1"
     inkscape:current-layer="svg986" />
  <title
     id="title2">SVG Picture created as filtr.svg date 2020/11/08 13:31:14 </title>
  <desc
     id="desc4">Picture generated by Eeschema-SVG </desc>
  <g
     id="g1119"
     transform="matrix(2.5123992,0,0,2.5123992,-8.1607486e-7,6.5531848e-4)">
    <text
       transform="translate(-42469.573,-27661.079)"
       x="70079.609"
       y="71164.25"
       textLength="59.842522"
       font-size="787.401575"
       lengthAdjust="spacingAndGlyphs"
       id="text642"
       style="font-size:787.40155029px;text-anchor:start;opacity:0;fill:#840000;fill-opacity:0;stroke:#840000;stroke-width:118.11023712;stroke-linecap:round;stroke-linejoin:round;stroke-opacity:1" />
    <g
       transform="translate(-42469.573,-27661.079)"
       class="stroked-text"
       id="g646"
       style="fill:#840000;fill-opacity:0;stroke:#840000;stroke-width:118.11023712;stroke-linecap:round;stroke-linejoin:round;stroke-opacity:1">
      <desc
         id="desc644" />
    </g>
    <text
       transform="translate(-42469.573,-27661.079)"
       x="70079.609"
       y="69983.148"
       textLength="118.11024"
       font-size="787.401575"
       lengthAdjust="spacingAndGlyphs"
       id="text650"
       style="font-size:787.40155029px;text-anchor:start;opacity:0;fill:#840000;fill-opacity:0;stroke:#840000;stroke-width:59.84252167;stroke-linecap:round;stroke-linejoin:round;stroke-opacity:1" />
    <g
       transform="translate(-42469.573,-27661.079)"
       class="stroked-text"
       id="g654"
       style="fill:#840000;fill-opacity:0;stroke:#840000;stroke-width:59.84252167;stroke-linecap:round;stroke-linejoin:round;stroke-opacity:1">
      <desc
         id="desc652" />
    </g>
    <text
       transform="translate(-42469.573,-27661.079)"
       x="70079.609"
       y="68802.047"
       textLength="59.842522"
       font-size="787.401575"
       lengthAdjust="spacingAndGlyphs"
       id="text656"
       style="font-size:787.40155029px;text-anchor:start;opacity:0;fill:#840000;fill-opacity:0;stroke:#840000;stroke-width:59.84252167;stroke-linecap:round;stroke-linejoin:round;stroke-opacity:1" />
    <g
       transform="translate(-42469.573,-27661.079)"
       class="stroked-text"
       id="g660"
       style="fill:#840000;fill-opacity:0;stroke:#840000;stroke-width:59.84252167;stroke-linecap:round;stroke-linejoin:round;stroke-opacity:1">
      <desc
         id="desc658" />
    </g>
    <text
       transform="translate(-42469.573,-27661.079)"
       x="70079.609"
       y="67620.945"
       textLength="59.842522"
       font-size="787.401575"
       lengthAdjust="spacingAndGlyphs"
       id="text662"
       style="font-size:787.40155029px;text-anchor:start;opacity:0;fill:#840000;fill-opacity:0;stroke:#840000;stroke-width:59.84252167;stroke-linecap:round;stroke-linejoin:round;stroke-opacity:1" />
    <g
       transform="translate(-42469.573,-27661.079)"
       class="stroked-text"
       id="g666"
       style="fill:#840000;fill-opacity:0;stroke:#840000;stroke-width:59.84252167;stroke-linecap:round;stroke-linejoin:round;stroke-opacity:1">
      <desc
         id="desc664" />
    </g>
    <text
       transform="translate(-42469.573,-27661.079)"
       x="70079.609"
       y="66439.844"
       textLength="59.842522"
       font-size="787.401575"
       lengthAdjust="spacingAndGlyphs"
       id="text668"
       style="font-size:787.40155029px;text-anchor:start;opacity:0;fill:#840000;fill-opacity:0;stroke:#840000;stroke-width:59.84252167;stroke-linecap:round;stroke-linejoin:round;stroke-opacity:1" />
    <g
       transform="translate(-42469.573,-27661.079)"
       class="stroked-text"
       id="g672"
       style="fill:#840000;fill-opacity:0;stroke:#840000;stroke-width:59.84252167;stroke-linecap:round;stroke-linejoin:round;stroke-opacity:1">
      <desc
         id="desc670" />
    </g>
    <g
       transform="translate(-42469.573,-27661.079)"
       id="g678"
       style="fill:#840000;fill-opacity:0;stroke:#840000;stroke-width:59.84252167;stroke-linecap:round;stroke-linejoin:round;stroke-opacity:1" />
    <g
       transform="translate(-42469.573,-27661.079)"
       style="fill:#840000;fill-opacity:0;stroke:#840000;stroke-width:100;stroke-linecap:round;stroke-linejoin:round;stroke-opacity:1"
       id="g682">
      <rect
         x="55000"
         y="33100"
         width="2000"
         height="800"
         rx="0.000000"
         id="rect680" />
    </g>
    <g
       transform="translate(-42469.573,-27661.079)"
       style="fill:#840000;fill-opacity:0;stroke:#840000;stroke-width:59.84252167;stroke-linecap:round;stroke-linejoin:round;stroke-opacity:1"
       id="g688">
      <path
         d="m 55000,33500 h -500"
         id="path684"
         inkscape:connector-curvature="0" />
      <path
         d="m 57000,33500 h 500"
         id="path686"
         inkscape:connector-curvature="0" />
    </g>
    <g
       transform="translate(-42469.573,-27661.079)"
       style="fill:#008484;fill-opacity:0;stroke:#008484;stroke-width:59.84252167;stroke-linecap:round;stroke-linejoin:round;stroke-opacity:1"
       id="g720">
      <text
         x="55999.961"
         y="31665.631"
         textLength="1036.0237"
         font-size="666.653543"
         lengthAdjust="spacingAndGlyphs"
         id="text690"
         style="font-size:666.65356445px;text-anchor:middle;opacity:0">R2</text>
      <g
         class="stroked-text"
         id="g700">
        <desc
           id="desc692">R2</desc>
        <path
           d="m 55916,31641 -167,-238"
           id="path694"
           inkscape:connector-curvature="0" />
        <path
           d="m 55630,31641 v -500 h 191 l 47,24 24,24 24,48 v 71 l -24,48 -24,23 -47,24 h -191"
           id="path696"
           inkscape:connector-curvature="0" />
        <path
           d="m 56107,31189 23,-24 48,-24 h 119 l 48,24 23,24 24,48 v 47 l -24,72 -285,285 h 309"
           id="path698"
           inkscape:connector-curvature="0" />
      </g>
      <text
         x="55999.961"
         y="32570.354"
         textLength="1416.9685"
         font-size="666.653543"
         lengthAdjust="spacingAndGlyphs"
         id="text702"
         style="font-size:666.65356445px;text-anchor:middle;opacity:0">10k</text>
      <g
         class="stroked-text"
         id="g718">
        <desc
           id="desc704">10k</desc>
        <path
           d="m 55702,32546 h -286"
           id="path706"
           inkscape:connector-curvature="0" />
        <path
           d="m 55559,32546 v -500 l -48,71 -47,48 -48,24"
           id="path708"
           inkscape:connector-curvature="0" />
        <path
           d="m 56011,32046 h 48 l 48,24 23,24 24,47 24,96 v 119 l -24,95 -24,47 -23,24 -48,24 h -48 l -47,-24 -24,-24 -24,-47 -24,-95 v -119 l 24,-96 24,-47 24,-24 47,-24"
           id="path710"
           inkscape:connector-curvature="0" />
        <path
           d="m 56392,32546 v -500"
           id="path712"
           inkscape:connector-curvature="0" />
        <path
           d="m 56440,32356 143,190"
           id="path714"
           inkscape:connector-curvature="0" />
        <path
           d="m 56583,32213 -191,190"
           id="path716"
           inkscape:connector-curvature="0" />
      </g>
    </g>
    <g
       transform="translate(-42469.573,-27661.079)"
       id="g724"
       style="fill:#008484;fill-opacity:0;stroke:#008484;stroke-width:59.84252167;stroke-linecap:round;stroke-linejoin:round;stroke-opacity:1" />
    <g
       transform="translate(-42469.573,-27661.079)"
       style="fill:#840000;fill-opacity:0;stroke:#840000;stroke-width:59.84252167;stroke-linecap:round;stroke-linejoin:round;stroke-opacity:1"
       id="g726" />
    <g
       transform="translate(-42469.573,-27661.079)"
       style="fill:#840000;fill-opacity:0;stroke:#840000;stroke-width:200;stroke-linecap:round;stroke-linejoin:round;stroke-opacity:1"
       id="g732">
      <path
         style="fill:none;fill-opacity:0;stroke:#840000;stroke-width:200;stroke-linecap:round;stroke-linejoin:round;stroke-opacity:1"
         d="M 51800,31300 V 29700"
         id="path728"
         inkscape:connector-curvature="0" />
      <path
         style="fill:none;fill-opacity:0;stroke:#840000;stroke-width:200;stroke-linecap:round;stroke-linejoin:round;stroke-opacity:1"
         d="M 51200,31300 V 29700"
         id="path730"
         inkscape:connector-curvature="0" />
    </g>
    <g
       transform="translate(-42469.573,-27661.079)"
       style="fill:#840000;fill-opacity:0;stroke:#840000;stroke-width:59.84252167;stroke-linecap:round;stroke-linejoin:round;stroke-opacity:1"
       id="g738">
      <path
         d="M 51100,30500 H 50000"
         id="path734"
         inkscape:connector-curvature="0" />
      <path
         d="m 51900,30500 h 1100"
         id="path736"
         inkscape:connector-curvature="0" />
    </g>
    <g
       transform="translate(-42469.573,-27661.079)"
       style="fill:#008484;fill-opacity:0;stroke:#008484;stroke-width:59.84252167;stroke-linecap:round;stroke-linejoin:round;stroke-opacity:1"
       id="g768">
      <text
         x="51499.961"
         y="28215.631"
         textLength="1036.0237"
         font-size="666.653543"
         lengthAdjust="spacingAndGlyphs"
         id="text740"
         style="font-size:666.65356445px;text-anchor:middle;opacity:0">C1</text>
      <g
         class="stroked-text"
         id="g750">
        <desc
           id="desc742">C1</desc>
        <path
           d="m 51416,28144 -24,23 -71,24 h -48 l -71,-24 -48,-47 -24,-48 -23,-95 v -71 l 23,-96 24,-47 48,-48 71,-24 h 48 l 71,24 24,24"
           id="path744"
           inkscape:connector-curvature="0" />
        <path
           d="m 51892,28191 h -285"
           id="path746"
           inkscape:connector-curvature="0" />
        <path
           d="m 51749,28191 v -500 l -47,72 -48,47 -47,24"
           id="path748"
           inkscape:connector-curvature="0" />
      </g>
      <text
         x="51499.961"
         y="29120.551"
         textLength="1464.6063"
         font-size="666.653543"
         lengthAdjust="spacingAndGlyphs"
         id="text752"
         style="font-size:666.65356445px;text-anchor:middle;opacity:0">10n</text>
      <g
         class="stroked-text"
         id="g766">
        <desc
           id="desc754">10n</desc>
        <path
           d="m 51178,29096 h -286"
           id="path756"
           inkscape:connector-curvature="0" />
        <path
           d="m 51035,29096 v -500 l -47,72 -48,47 -48,24"
           id="path758"
           inkscape:connector-curvature="0" />
        <path
           d="m 51488,28596 h 47 l 48,24 24,24 23,47 24,96 v 119 l -24,95 -23,48 -24,23 -48,24 h -47 l -48,-24 -24,-23 -24,-48 -24,-95 v -119 l 24,-96 24,-47 24,-24 48,-24"
           id="path760"
           inkscape:connector-curvature="0" />
        <path
           d="m 51868,28763 v 333"
           id="path762"
           inkscape:connector-curvature="0" />
        <path
           d="m 51868,28811 24,-24 48,-24 h 71 l 48,24 24,47 v 262"
           id="path764"
           inkscape:connector-curvature="0" />
      </g>
    </g>
    <g
       transform="translate(-42469.573,-27661.079)"
       id="g772"
       style="fill:#008484;fill-opacity:0;stroke:#008484;stroke-width:59.84252167;stroke-linecap:round;stroke-linejoin:round;stroke-opacity:1" />
    <g
       transform="translate(-42469.573,-27661.079)"
       style="fill:#840000;fill-opacity:0;stroke:#840000;stroke-width:59.84252167;stroke-linecap:round;stroke-linejoin:round;stroke-opacity:1"
       id="g774" />
    <g
       transform="translate(-42469.573,-27661.079)"
       style="fill:#840000;fill-opacity:0;stroke:#840000;stroke-width:100;stroke-linecap:round;stroke-linejoin:round;stroke-opacity:1"
       id="g782">
      <path
         style="fill:none;fill-opacity:0;stroke:#840000;stroke-width:100;stroke-linecap:round;stroke-linejoin:round;stroke-opacity:1"
         d="m 51140,38680 h 720"
         id="path776"
         inkscape:connector-curvature="0" />
      <path
         style="fill:none;fill-opacity:0;stroke:#840000;stroke-width:100;stroke-linecap:round;stroke-linejoin:round;stroke-opacity:1"
         d="m 51280,38840 h 440"
         id="path778"
         inkscape:connector-curvature="0" />
      <path
         style="fill:none;fill-opacity:0;stroke:#840000;stroke-width:100;stroke-linecap:round;stroke-linejoin:round;stroke-opacity:1"
         d="m 51400,39000 h 200"
         id="path780"
         inkscape:connector-curvature="0" />
    </g>
    <g
       transform="translate(-42469.573,-27661.079)"
       style="fill:#840000;fill-opacity:0;stroke:#840000;stroke-width:59.84252167;stroke-linecap:round;stroke-linejoin:round;stroke-opacity:1"
       id="g786">
      <path
         style="fill:none;fill-opacity:0;stroke:#840000;stroke-width:59.84252167;stroke-linecap:round;stroke-linejoin:round;stroke-opacity:1"
         d="m 51500,38500 v -500"
         id="path784"
         inkscape:connector-curvature="0" />
    </g>
    <g
       transform="translate(-42469.573,-27661.079)"
       style="fill:#840000;fill-opacity:0;stroke:#840000;stroke-width:100;stroke-linecap:round;stroke-linejoin:round;stroke-opacity:1"
       id="g790">
      <path
         style="fill:none;fill-opacity:0;stroke:#840000;stroke-width:100;stroke-linecap:round;stroke-linejoin:round;stroke-opacity:1"
         d="M 52000,38500 H 51000"
         id="path788"
         inkscape:connector-curvature="0" />
    </g>
    <g
       transform="translate(-42469.573,-27661.079)"
       style="fill:#008484;fill-opacity:0;stroke:#008484;stroke-width:100;stroke-linecap:round;stroke-linejoin:round;stroke-opacity:1"
       id="g792" />
    <g
       transform="translate(-42469.573,-27661.079)"
       style="fill:#008484;fill-opacity:0;stroke:#008484;stroke-width:59.84252167;stroke-linecap:round;stroke-linejoin:round;stroke-opacity:1"
       id="g806">
      <text
         x="51520"
         y="40029.371"
         textLength="1583.6614"
         font-size="666.653543"
         lengthAdjust="spacingAndGlyphs"
         id="text794"
         style="font-size:666.65356445px;text-anchor:middle;opacity:0">GND</text>
      <g
         class="stroked-text"
         id="g804">
        <desc
           id="desc796">GND</desc>
        <path
           d="m 51139,39529 -48,-24 h -71 l -72,24 -48,47 -23,48 -24,95 v 72 l 24,95 23,48 48,47 72,24 h 47 l 72,-24 23,-24 v -166 h -95"
           id="path798"
           inkscape:connector-curvature="0" />
        <path
           d="m 51377,40005 v -500 l 285,500 v -500"
           id="path800"
           inkscape:connector-curvature="0" />
        <path
           d="m 51900,40005 v -500 h 120 l 71,24 48,47 23,48 24,95 v 72 l -24,95 -23,48 -48,47 -71,24 h -120"
           id="path802"
           inkscape:connector-curvature="0" />
      </g>
    </g>
    <g
       transform="translate(-42469.573,-27661.079)"
       id="g810"
       style="fill:#008484;fill-opacity:0;stroke:#008484;stroke-width:59.84252167;stroke-linecap:round;stroke-linejoin:round;stroke-opacity:1" />
    <g
       transform="translate(-42469.573,-27661.079)"
       style="fill:#840000;fill-opacity:0;stroke:#840000;stroke-width:59.84252167;stroke-linecap:round;stroke-linejoin:round;stroke-opacity:1"
       id="g812" />
    <g
       transform="translate(-42469.573,-27661.079)"
       style="fill:#840000;fill-opacity:0;stroke:#840000;stroke-width:200;stroke-linecap:round;stroke-linejoin:round;stroke-opacity:1"
       id="g818">
      <path
         style="fill:none;fill-opacity:0;stroke:#840000;stroke-width:200;stroke-linecap:round;stroke-linejoin:round;stroke-opacity:1"
         d="M 52300,35700 H 50700"
         id="path814"
         inkscape:connector-curvature="0" />
      <path
         style="fill:none;fill-opacity:0;stroke:#840000;stroke-width:200;stroke-linecap:round;stroke-linejoin:round;stroke-opacity:1"
         d="M 52300,36300 H 50700"
         id="path816"
         inkscape:connector-curvature="0" />
    </g>
    <g
       transform="translate(-42469.573,-27661.079)"
       style="fill:#840000;fill-opacity:0;stroke:#840000;stroke-width:59.84252167;stroke-linecap:round;stroke-linejoin:round;stroke-opacity:1"
       id="g824">
      <path
         d="m 51500,36400 v 1100"
         id="path820"
         inkscape:connector-curvature="0" />
      <path
         d="M 51500,35600 V 34500"
         id="path822"
         inkscape:connector-curvature="0" />
    </g>
    <g
       transform="translate(-42469.573,-27661.079)"
       style="fill:#008484;fill-opacity:0;stroke:#008484;stroke-width:59.84252167;stroke-linecap:round;stroke-linejoin:round;stroke-opacity:1"
       id="g854">
      <text
         x="53169.332"
         y="35770.746"
         textLength="1036.0237"
         font-size="666.653543"
         lengthAdjust="spacingAndGlyphs"
         id="text826"
         style="font-size:666.65356445px;text-anchor:middle;opacity:0">C2</text>
      <g
         class="stroked-text"
         id="g834">
        <desc
           id="desc828">C2</desc>
        <path
           d="m 53085,35699 -23,24 -72,23 h -47 l -72,-23 -47,-48 -24,-48 -24,-95 v -71 l 24,-96 24,-47 47,-48 72,-24 h 47 l 72,24 23,24"
           id="path830"
           inkscape:connector-curvature="0" />
        <path
           d="m 53276,35294 24,-24 47,-24 h 119 l 48,24 24,24 24,48 v 47 l -24,72 -286,285 h 310"
           id="path832"
           inkscape:connector-curvature="0" />
      </g>
      <text
         x="53621.73"
         y="36675.473"
         textLength="1940.7874"
         font-size="666.653543"
         lengthAdjust="spacingAndGlyphs"
         id="text836"
         style="font-size:666.65356445px;text-anchor:middle;opacity:0">100n</text>
      <g
         class="stroked-text"
         id="g852">
        <desc
           id="desc838">100n</desc>
        <path
           d="m 53062,36651 h -286"
           id="path840"
           inkscape:connector-curvature="0" />
        <path
           d="m 52919,36651 v -500 l -48,72 -47,47 -48,24"
           id="path842"
           inkscape:connector-curvature="0" />
        <path
           d="m 53371,36151 h 48 l 47,24 24,24 24,47 24,96 v 119 l -24,95 -24,48 -24,23 -47,24 h -48 l -47,-24 -24,-23 -24,-48 -24,-95 v -119 l 24,-96 24,-47 24,-24 47,-24"
           id="path844"
           inkscape:connector-curvature="0" />
        <path
           d="m 53847,36151 h 48 l 48,24 23,24 24,47 24,96 v 119 l -24,95 -24,48 -23,23 -48,24 h -48 l -47,-24 -24,-23 -24,-48 -24,-95 v -119 l 24,-96 24,-47 24,-24 47,-24"
           id="path846"
           inkscape:connector-curvature="0" />
        <path
           d="m 54228,36318 v 333"
           id="path848"
           inkscape:connector-curvature="0" />
        <path
           d="m 54228,36365 24,-23 48,-24 h 71 l 48,24 24,47 v 262"
           id="path850"
           inkscape:connector-curvature="0" />
      </g>
    </g>
    <g
       transform="translate(-42469.573,-27661.079)"
       id="g858"
       style="fill:#008484;fill-opacity:0;stroke:#008484;stroke-width:59.84252167;stroke-linecap:round;stroke-linejoin:round;stroke-opacity:1" />
    <g
       transform="translate(-42469.573,-27661.079)"
       style="fill:#840000;fill-opacity:0;stroke:#840000;stroke-width:59.84252167;stroke-linecap:round;stroke-linejoin:round;stroke-opacity:1"
       id="g860" />
    <g
       transform="translate(-42469.573,-27661.079)"
       style="fill:#840000;fill-opacity:0;stroke:#840000;stroke-width:100;stroke-linecap:round;stroke-linejoin:round;stroke-opacity:1"
       id="g864">
      <rect
         x="46000"
         y="33100"
         width="2000"
         height="800"
         rx="0.000000"
         id="rect862" />
    </g>
    <g
       transform="translate(-42469.573,-27661.079)"
       style="fill:#840000;fill-opacity:0;stroke:#840000;stroke-width:59.84252167;stroke-linecap:round;stroke-linejoin:round;stroke-opacity:1"
       id="g870">
      <path
         d="m 46000,33500 h -500"
         id="path866"
         inkscape:connector-curvature="0" />
      <path
         d="m 48000,33500 h 500"
         id="path868"
         inkscape:connector-curvature="0" />
    </g>
    <g
       transform="translate(-42469.573,-27661.079)"
       style="fill:#008484;fill-opacity:0;stroke:#008484;stroke-width:59.84252167;stroke-linecap:round;stroke-linejoin:round;stroke-opacity:1"
       id="g904">
      <text
         x="46999.961"
         y="31665.631"
         textLength="1036.0237"
         font-size="666.653543"
         lengthAdjust="spacingAndGlyphs"
         id="text872"
         style="font-size:666.65356445px;text-anchor:middle;opacity:0">R1</text>
      <g
         class="stroked-text"
         id="g884">
        <desc
           id="desc874">R1</desc>
        <path
           d="m 46916,31641 -167,-238"
           id="path876"
           inkscape:connector-curvature="0" />
        <path
           d="m 46630,31641 v -500 h 191 l 47,24 24,24 24,48 v 71 l -24,48 -24,23 -47,24 h -191"
           id="path878"
           inkscape:connector-curvature="0" />
        <path
           d="m 47392,31641 h -285"
           id="path880"
           inkscape:connector-curvature="0" />
        <path
           d="m 47249,31641 v -500 l -47,72 -48,47 -47,24"
           id="path882"
           inkscape:connector-curvature="0" />
      </g>
      <text
         x="46999.961"
         y="32570.354"
         textLength="1416.9685"
         font-size="666.653543"
         lengthAdjust="spacingAndGlyphs"
         id="text886"
         style="font-size:666.65356445px;text-anchor:middle;opacity:0">10k</text>
      <g
         class="stroked-text"
         id="g902">
        <desc
           id="desc888">10k</desc>
        <path
           d="m 46702,32546 h -286"
           id="path890"
           inkscape:connector-curvature="0" />
        <path
           d="m 46559,32546 v -500 l -48,71 -47,48 -48,24"
           id="path892"
           inkscape:connector-curvature="0" />
        <path
           d="m 47011,32046 h 48 l 48,24 23,24 24,47 24,96 v 119 l -24,95 -24,47 -23,24 -48,24 h -48 l -47,-24 -24,-24 -24,-47 -24,-95 v -119 l 24,-96 24,-47 24,-24 47,-24"
           id="path894"
           inkscape:connector-curvature="0" />
        <path
           d="m 47392,32546 v -500"
           id="path896"
           inkscape:connector-curvature="0" />
        <path
           d="m 47440,32356 143,190"
           id="path898"
           inkscape:connector-curvature="0" />
        <path
           d="m 47583,32213 -191,190"
           id="path900"
           inkscape:connector-curvature="0" />
      </g>
    </g>
    <text
       transform="translate(-42469.573,-27661.079)"
       x="58500"
       y="33287.48"
       textLength="536.02362"
       font-size="666.653543"
       lengthAdjust="spacingAndGlyphs"
       id="text912"
       style="font-size:666.65356445px;text-anchor:end;opacity:0;fill:#000000;fill-opacity:0;stroke:#000000;stroke-width:59.84252167;stroke-linecap:round;stroke-linejoin:round;stroke-opacity:1">3</text>
    <g
       transform="translate(-42469.573,-27661.079)"
       class="stroked-text"
       id="g918"
       style="fill:#000000;fill-opacity:0;stroke:#000000;stroke-width:59.84252167;stroke-linecap:round;stroke-linejoin:round;stroke-opacity:1">
      <desc
         id="desc914">3</desc>
      <path
         d="m 58065,32763 h 309 l -166,191 h 71 l 48,23 24,24 23,48 v 119 l -23,48 -24,23 -48,24 h -143 l -47,-24 -24,-23"
         id="path916"
         inkscape:connector-curvature="0" />
    </g>
    <text
       transform="translate(-42469.573,-27661.079)"
       x="45000"
       y="33287.48"
       textLength="536.02362"
       font-size="666.653543"
       lengthAdjust="spacingAndGlyphs"
       id="text924"
       style="font-size:666.65356445px;text-anchor:end;opacity:0;fill:#000000;fill-opacity:0;stroke:#000000;stroke-width:59.84252167;stroke-linecap:round;stroke-linejoin:round;stroke-opacity:1">1</text>
    <g
       transform="translate(-42469.573,-27661.079)"
       class="stroked-text"
       id="g932"
       style="fill:#000000;fill-opacity:0;stroke:#000000;stroke-width:59.84252167;stroke-linecap:round;stroke-linejoin:round;stroke-opacity:1">
      <desc
         id="desc926">1</desc>
      <path
         d="m 44874,33263 h -285"
         id="path928"
         inkscape:connector-curvature="0" />
      <path
         d="m 44731,33263 v -500 l -47,72 -48,47 -47,24"
         id="path930"
         inkscape:connector-curvature="0" />
    </g>
    <text
       transform="translate(-42469.573,-27661.079)"
       x="50500"
       y="33287.48"
       textLength="536.02362"
       font-size="666.653543"
       lengthAdjust="spacingAndGlyphs"
       id="text938"
       style="font-size:666.65356445px;text-anchor:end;opacity:0;fill:#000000;fill-opacity:0;stroke:#000000;stroke-width:59.84252167;stroke-linecap:round;stroke-linejoin:round;stroke-opacity:1">2</text>
    <g
       transform="translate(-42469.573,-27661.079)"
       class="stroked-text"
       id="g944"
       style="fill:#000000;fill-opacity:0;stroke:#000000;stroke-width:59.84252167;stroke-linecap:round;stroke-linejoin:round;stroke-opacity:1">
      <desc
         id="desc940">2</desc>
      <path
         d="m 50089,32811 23,-24 48,-24 h 119 l 48,24 24,24 23,47 v 48 l -23,71 -286,286 h 309"
         id="path942"
         inkscape:connector-curvature="0" />
    </g>
    <path
       d="m 7530.4273,2838.9213 h -6000"
       id="path950"
       inkscape:connector-curvature="0"
       style="fill:#008400;fill-opacity:0;stroke:#008400;stroke-width:60;stroke-linecap:round;stroke-linejoin:round;stroke-opacity:1" />
    <path
       d="m 16530.427,5838.9213 h 1500"
       id="path952"
       inkscape:connector-curvature="0"
       style="fill:#008400;fill-opacity:0;stroke:#008400;stroke-width:60;stroke-linecap:round;stroke-linejoin:round;stroke-opacity:1" />
    <path
       d="m 16530.427,2838.9213 v 3000"
       id="path954"
       inkscape:connector-curvature="0"
       style="fill:#008400;fill-opacity:0;stroke:#008400;stroke-width:60;stroke-linecap:round;stroke-linejoin:round;stroke-opacity:1" />
    <path
       d="m 15030.427,5838.9213 h 1500"
       id="path956"
       inkscape:connector-curvature="0"
       style="fill:#008400;fill-opacity:0;stroke:#008400;stroke-width:60;stroke-linecap:round;stroke-linejoin:round;stroke-opacity:1" />
    <path
       d="m 9030.4273,9838.9213 v 499.9997"
       id="path958"
       inkscape:connector-curvature="0"
       style="fill:#008400;fill-opacity:0;stroke:#008400;stroke-width:60;stroke-linecap:round;stroke-linejoin:round;stroke-opacity:1" />
    <path
       d="m 9030.4273,5838.9213 v 1000"
       id="path960"
       inkscape:connector-curvature="0"
       style="fill:#008400;fill-opacity:0;stroke:#008400;stroke-width:60;stroke-linecap:round;stroke-linejoin:round;stroke-opacity:1" />
    <path
       d="m 6030.4273,5838.9213 h 3000"
       id="path962"
       inkscape:connector-curvature="0"
       style="fill:#008400;fill-opacity:0;stroke:#008400;stroke-width:60;stroke-linecap:round;stroke-linejoin:round;stroke-opacity:1" />
    <path
       d="m 1530.4273,5838.9213 h 1500"
       id="path964"
       inkscape:connector-curvature="0"
       style="fill:#008400;fill-opacity:0;stroke:#008400;stroke-width:60;stroke-linecap:round;stroke-linejoin:round;stroke-opacity:1" />
    <path
       d="m 1530.4273,2838.9213 v 3000"
       id="path966"
       inkscape:connector-curvature="0"
       style="fill:#008400;fill-opacity:0;stroke:#008400;stroke-width:60;stroke-linecap:round;stroke-linejoin:round;stroke-opacity:1" />
    <path
       d="M 30.427275,5838.9213 H 1530.4273"
       id="path968"
       inkscape:connector-curvature="0"
       style="fill:#008400;fill-opacity:0;stroke:#008400;stroke-width:60;stroke-linecap:round;stroke-linejoin:round;stroke-opacity:1" />
    <path
       d="m 10530.427,2838.9213 h 6000"
       id="path970"
       inkscape:connector-curvature="0"
       style="fill:#008400;fill-opacity:0;stroke:#008400;stroke-width:60;stroke-linecap:round;stroke-linejoin:round;stroke-opacity:1" />
    <path
       d="M 9030.4273,5838.9213 H 12030.427"
       id="path972"
       inkscape:connector-curvature="0"
       style="fill:#008400;fill-opacity:0;stroke:#008400;stroke-width:60;stroke-linecap:round;stroke-linejoin:round;stroke-opacity:1" />
    <circle
       cx="1530.4272"
       cy="5838.9214"
       r="200"
       id="circle978"
       style="fill:#008400;fill-opacity:1;stroke:#008400;stroke-width:59.84252167;stroke-linecap:round;stroke-linejoin:round;stroke-opacity:1" />
    <circle
       cx="9030.4277"
       cy="5838.9214"
       r="200"
       id="circle980"
       style="fill:#008400;fill-opacity:1;stroke:#008400;stroke-width:59.84252167;stroke-linecap:round;stroke-linejoin:round;stroke-opacity:1" />
    <circle
       cx="16530.428"
       cy="5838.9214"
       r="200"
       id="circle982"
       style="fill:#008400;fill-opacity:1;stroke:#008400;stroke-width:59.84252167;stroke-linecap:round;stroke-linejoin:round;stroke-opacity:1" />
  </g>
</svg>
